# xmcd CD database file
#
# Track frame offsets:
#	150
#	20828
#	37717
#	55445
#	76400
#	92995
#	108201
#	128225
#	149556
#	165955
#	182446
#	207231
#	223823
#	242010
#
# Disc length: 3398 seconds
#
# Revision: 2
# Processed by: cddbd v1.5.2PL0 Copyright (c) Steve Scherf et al.
# Submitted via: CDex 1.70beta2
#
DISCID=c00d440e
DTITLE=Carola - Credo
DYEAR=2004
DGENRE=CCM
TTITLE0=Ditt ord består
TTITLE1=Åt alla
TTITLE2=Som en båt
TTITLE3=Gud jag behöver dig
TTITLE4=Du vet väl om att du är värdefull
TTITLE5=Så älskade Gud hela världen
TTITLE6=För att du inte tog det gudomliga
TTITLE7=Herre, till Dig får jag komma
TTITLE8=Lova Gud, o min själ
TTITLE9=Din trofasta kärlek
TTITLE10=Jag vill ge Dig, o Herre, min lovsång
TTITLE11=Namnet Jesus
TTITLE12=Låt mina fötter få gå
TTITLE13=I frid vill jag lägga mig ner
EXTD=YEAR: 2004
EXTT0=
EXTT1=
EXTT2=
EXTT3=
EXTT4=
EXTT5=
EXTT6=
EXTT7=
EXTT8=
EXTT9=
EXTT10=
EXTT11=
EXTT12=
EXTT13=
PLAYORDER=
